# xmcd
#
# Track frame offsets:
#	150
#	13282
#	28402
#	44058
#	59503
#	72753
#	85432
#	99735
#	115535
#	129741
#	143349
#	156559
#	171425
#	184732
#	198743
#	214316
#	228766
#	243732
#	257590
#	271457
#	284689
#	298080
#	310458
#	325771
#	339910
#
# Disc length: 4710 seconds
#
# Revision: 0
# Processed by: cddbd v1.5.2PL0 Copyright (c) Steve Scherf et al.
# Submitted via: audiograbber 1.83.01
#
DISCID=94126419
DTITLE=Sonny Boy Williamson - Sonny Boy Williamson - The Early Years - 1937 - 1
DTITLE=938
DYEAR=2007
DGENRE=Blues
TTITLE0=Robert Lee McCoy - I have Spent My Bonus
TTITLE1=Robert Lee McCoy - CNA
TTITLE2=Henry Townsend - Lose Your Man
TTITLE3=Henry Townsend - All I've Got's Gone
TTITLE4=Henry Townsend - A Ramblin' Mind
TTITLE5=Henry Townsend - Now I Stay Away
TTITLE6=Sonny Boy Williamson - My Little Cornelius
TTITLE7=Sonny Boy Williamson - Decoration Blues
TTITLE8=Sonny Boy Williamson - You Can Lead Me
TTITLE9=Sonny Boy Williamson - Moonshine
TTITLE10=Sonny Boy Williamson - Miss Louisa Blues
TTITLE11=Sonny Boy Williamson - Sunny Land
TTITLE12=Sonny Boy Williamson - I'm Tired Trucking My Blues Away
TTITLE13=Sonny Boy Williamson - Down South
TTITLE14=Sonny Boy Williamson - Beauty Parlor
TTITLE15=Sonny Boy Williamson - Until My Love Come Dow
TTITLE16=Elijah Jones - Katy Fly
TTITLE17=Elijah Jones - Big Boat
TTITLE18=Elijah Jones - Only Boy Child
TTITLE19=Elijah Jones - Lonesome Man
TTITLE20=Elijah Jones - Mean Actin' Mama
TTITLE21=Elijah Jones - Stuff Stomp
TTITLE22=Yank Rachell - J. L. Dairy Blues
TTITLE23=Yank Rachell - Rachel Blues
TTITLE24=Yank Rachell - Lake Michigan Blues
EXTD=
EXTT0=
EXTT1=
EXTT2=
EXTT3=
EXTT4=
EXTT5=
EXTT6=
EXTT7=
EXTT8=
EXTT9=
EXTT10=
EXTT11=
EXTT12=
EXTT13=
EXTT14=
EXTT15=
EXTT16=
EXTT17=
EXTT18=
EXTT19=
EXTT20=
EXTT21=
EXTT22=
EXTT23=
EXTT24=
PLAYORDER=
